<?xml version="1.0" standalone="no"?><!DOCTYPE svg PUBLIC "-//W3C//DTD SVG 1.1//EN" "http://www.w3.org/Graphics/SVG/1.1/DTD/svg11.dtd"><svg t="1709368270327" class="icon" viewBox="0 0 1024 1024" version="1.1" xmlns="http://www.w3.org/2000/svg" p-id="4230" width="16" height="16" xmlns:xlink="http://www.w3.org/1999/xlink"><path d="M614.4 585.142857h87.771429v87.771429h-87.771429zM263.314286 351.085714h146.285714v87.771429H263.314286z" fill="#FFCC00" p-id="4231"></path><path d="M950.857143 0H73.142857C32.182857 0 0 32.182857 0 73.142857v877.714286c0 40.96 32.182857 73.142857 73.142857 73.142857h877.714286c40.96 0 73.142857-32.182857 73.142857-73.142857V73.142857c0-40.96-32.182857-73.142857-73.142857-73.142857z m-87.771429 760.685714c0 8.777143-5.851429 14.628571-14.628571 14.628572H561.737143l-39.497143 39.497143c-2.925714 2.925714-5.851429 4.388571-10.24 4.388571s-7.314286-1.462857-10.24-4.388571L462.262857 775.314286h-26.331428c-8.777143 0-14.628571-5.851429-14.628572-14.628572s5.851429-14.628571 14.628572-14.628571H468.114286c4.388571 0 7.314286 1.462857 10.24 4.388571l33.645714 33.645715 33.645714-33.645715c2.925714-2.925714 5.851429-4.388571 10.24-4.388571h277.942857V277.942857H561.737143l-39.497143 39.497143c-5.851429 5.851429-14.628571 5.851429-20.48 0L462.262857 277.942857H190.171429v468.114286h175.542857c8.777143 0 14.628571 5.851429 14.628571 14.628571s-5.851429 14.628571-14.628571 14.628572H175.542857c-8.777143 0-14.628571-5.851429-14.628571-14.628572V263.314286c0-8.777143 5.851429-14.628571 14.628571-14.628572h292.571429c4.388571 0 7.314286 1.462857 10.24 4.388572l33.645714 33.645714 33.645714-33.645714c2.925714-2.925714 5.851429-4.388571 10.24-4.388572h292.571429c8.777143 0 14.628571 5.851429 14.628571 14.628572v497.371428zM248.685714 541.257143c-8.777143 0-14.628571-5.851429-14.628571-14.628572s5.851429-14.628571 14.628571-14.628571h175.542857c8.777143 0 14.628571 5.851429 14.628572 14.628571s-5.851429 14.628571-14.628572 14.628572H248.685714z m102.4 58.514286c0 8.777143-5.851429 14.628571-14.628571 14.628571h-87.771429c-8.777143 0-14.628571-5.851429-14.628571-14.628571s5.851429-14.628571 14.628571-14.628572h87.771429c8.777143 0 14.628571 5.851429 14.628571 14.628572z m-117.028571-146.285715v-117.028571c0-8.777143 5.851429-14.628571 14.628571-14.628572h175.542857c8.777143 0 14.628571 5.851429 14.628572 14.628572v117.028571c0 8.777143-5.851429 14.628571-14.628572 14.628572H248.685714c-8.777143 0-14.628571-5.851429-14.628571-14.628572z m365.714286-58.514285h175.542857c8.777143 0 14.628571 5.851429 14.628571 14.628571s-5.851429 14.628571-14.628571 14.628571H599.771429c-8.777143 0-14.628571-5.851429-14.628572-14.628571s5.851429-14.628571 14.628572-14.628571z m-14.628572-58.514286c0-8.777143 5.851429-14.628571 14.628572-14.628572h175.542857c8.777143 0 14.628571 5.851429 14.628571 14.628572s-5.851429 14.628571-14.628571 14.628571H599.771429c-8.777143 0-14.628571-5.851429-14.628572-14.628571z m14.628572 131.657143h117.028571c8.777143 0 14.628571 5.851429 14.628571 14.628571s-5.851429 14.628571-14.628571 14.628572h-117.028571c-8.777143 0-14.628571-5.851429-14.628572-14.628572s5.851429-14.628571 14.628572-14.628571z m0 87.771428h117.028571c8.777143 0 14.628571 5.851429 14.628571 14.628572v117.028571c0 8.777143-5.851429 14.628571-14.628571 14.628572h-117.028571c-8.777143 0-14.628571-5.851429-14.628572-14.628572v-117.028571c0-8.777143 5.851429-14.628571 14.628572-14.628572z" fill="#FFCC00" p-id="4232"></path></svg>