<?xml version="1.0" standalone="no"?><!DOCTYPE svg PUBLIC "-//W3C//DTD SVG 1.1//EN" "http://www.w3.org/Graphics/SVG/1.1/DTD/svg11.dtd"><svg t="1761113582458" class="icon" viewBox="0 0 1024 1024" version="1.1" xmlns="http://www.w3.org/2000/svg" p-id="1537" xmlns:xlink="http://www.w3.org/1999/xlink" width="200" height="200"><path d="M765.4912 541.3888h-80.7936a170.5472 170.5472 0 0 0-88.064-179.8656l30.976-101.5808a106.24 106.24 0 0 0 131.7888-102.912A106.24 106.24 0 0 0 652.7488 51.2a106.24 106.24 0 0 0-106.6496 105.8304c0 44.3904 27.392 82.2784 66.3552 98.048l-30.208 99.7376c-20.5312-8.6016-43.1104-13.312-66.816-13.312-44.5952 0-85.1968 16.7936-115.7632 44.4416L240.8448 228.352c16.384-17.2544 27.5456-42.9056 27.5456-71.168A106.1888 106.1888 0 0 0 161.792 51.2512 106.24 106.24 0 0 0 55.0912 157.184c0 58.5728 47.7184 105.984 106.7008 105.984 28.5696 0 54.3744-11.1616 73.472-29.184l-5.632 5.4784 158.8736 157.5936a169.1648 169.1648 0 0 0-44.9536 114.944 169.1648 169.1648 0 0 0 35.0208 103.2192l-136.0384 109.056a106.6496 106.6496 0 0 0-84.736-41.6768C98.9184 682.496 51.2 730.0096 51.2 788.48c0 58.368 47.7184 105.7792 106.5984 105.7792s106.6496-47.4112 106.6496-105.8304c0-18.4832-4.7616-35.9424-13.2096-51.0976l137.4208-110.08a172.1856 172.1856 0 0 0 126.7712 55.296c25.4464 0 49.5616-5.4272 71.3216-15.36l47.872 107.6224a105.6256 105.6256 0 0 0-54.0672 92.0576c0 58.4192 47.8208 105.8816 106.8032 105.8816 58.88 0 106.5472-47.4624 106.5472-105.8816 0-58.4704-47.616-105.8816-106.5472-105.8816-13.6704 0-26.5728 2.56-38.5536 7.0656l-47.9232-108.1344a171.2128 171.2128 0 0 0 80.2816-102.912h80.0768a106.24 106.24 0 0 0 104.7552 125.44A106.3424 106.3424 0 0 0 972.8 576.6144a106.3424 106.3424 0 0 0-106.8032-105.7792c-46.336 0-85.8112 29.5424-100.5056 70.5536zM217.9584 220.16L474.112 474.368 217.9584 220.16z m416.256 0l-72.704 225.792 72.704-225.792z m161.024 343.552l-224.4096-20.992 224.4096 20.992z m-145.4592 237.056l-78.9504-179.712 78.9504 179.712z m-241.4592-198.144l-190.3616 152.064 190.3616-152.064z" fill="#1296db" p-id="1538"></path></svg>