<?xml version="1.0" standalone="no"?><!DOCTYPE svg PUBLIC "-//W3C//DTD SVG 1.1//EN" "http://www.w3.org/Graphics/SVG/1.1/DTD/svg11.dtd"><svg t="1761324516049" class="icon" viewBox="0 0 1025 1024" version="1.1" xmlns="http://www.w3.org/2000/svg" p-id="1698" xmlns:xlink="http://www.w3.org/1999/xlink" width="200.1953125" height="200"><path d="M920.983793 801.731765H105.156969c-57.223529 0-103.845647-46.622118-103.845647-103.905883v-593.317647C1.311322 47.284706 47.873205 0.662588 105.156969 0.662588h815.826824c57.223529 0 103.845647 46.622118 103.845647 103.845647v593.317647c0 57.223529-46.622118 103.845647-103.845647 103.845647zM105.156969 59.934118a44.574118 44.574118 0 0 0-44.513882 44.574117v593.317647a44.574118 44.574118 0 0 0 44.513882 44.453647h815.826824a44.574118 44.574118 0 0 0 44.513882-44.513882v-593.317647a44.574118 44.574118 0 0 0-44.574117-44.513882H105.217205z m889.976471 926.298353H30.947087a29.696 29.696 0 1 1 0-59.331765h964.186353a29.696 29.696 0 0 1 0 59.331765zM752.204499 351.412706c11.926588 1.445647 21.082353 13.372235 21.082353 26.684235v45.056c0 13.312-9.155765 25.298824-21.082353 26.684235l-50.416941 6.204236a194.981647 194.981647 0 0 1-15.781647 37.345882l31.141647 39.81553c7.408941 9.456941 5.421176 24.395294-3.97553 33.792l-31.86447 31.924705c-9.396706 9.396706-24.335059 11.324235-33.731765 3.915295l-40.176941-31.322353a195.222588 195.222588 0 0 1-37.466353 15.48047l-6.144 49.995294c-1.445647 11.986824-13.372235 21.082353-26.684235 21.082353h-45.056c-13.312 0-25.298824-9.095529-26.684236-21.082353l-6.144-49.633882a195.162353 195.162353 0 0 1-38.369882-15.721412l-38.851765 30.358588c-9.517176 7.408941-24.395294 5.421176-33.792-3.975529l-31.924706-31.924706c-9.396706-9.336471-11.324235-24.274824-3.915294-33.731765l29.936941-38.309647a194.981647 194.981647 0 0 1-16.624941-39.574588L278.152734 448.632471c-11.926588-1.445647-21.082353-13.372235-21.082353-26.684236v-45.056c0-13.312 9.155765-25.298824 21.082353-26.74447l47.164235-5.782589a195.162353 195.162353 0 0 1 16.865883-40.538352l-28.973177-37.044706c-7.408941-9.456941-5.421176-24.335059 3.97553-33.731765l31.86447-31.924706c9.396706-9.396706 24.335059-11.324235 33.731765-3.915294l37.345882 29.153882c12.890353-7.047529 26.503529-12.649412 40.658824-16.564706l5.782588-46.802823c1.445647-11.926588 13.372235-21.082353 26.684235-21.082353h45.056c13.312 0 25.298824 9.155765 26.684236 21.082353l5.903059 47.887059c13.733647 4.216471 26.925176 9.818353 39.454117 16.865882l38.008471-29.696c9.517176-7.408941 24.395294-5.421176 33.792 3.975529l31.924706 31.864471c9.396706 9.396706 11.324235 24.335059 3.915294 33.731765l-30.59953 39.152941c6.505412 12.288 11.745882 25.238588 15.480471 38.550588l49.332706 6.02353zM515.178616 505.374118a105.411765 105.411765 0 1 0 0-210.82353 105.411765 105.411765 0 0 0 0 210.82353z" fill="#57985b" p-id="1699"></path></svg>