<?xml version="1.0" standalone="no"?><!DOCTYPE svg PUBLIC "-//W3C//DTD SVG 1.1//EN" "http://www.w3.org/Graphics/SVG/1.1/DTD/svg11.dtd"><svg t="1709368150017" class="icon" viewBox="0 0 1024 1024" version="1.1" xmlns="http://www.w3.org/2000/svg" p-id="3248" xmlns:xlink="http://www.w3.org/1999/xlink" width="16" height="16"><path d="M512 512m-512 0a512 512 0 1 0 1024 0 512 512 0 1 0-1024 0Z" fill="#508BEE" p-id="3249"></path><path d="M281.6 354.133333c-4.266667 0-12.8-4.266667-17.066667-8.533333-4.266667 0-8.533333-8.533333-8.533333-12.8V281.6c0-4.266667 4.266667-12.8 8.533333-17.066667 4.266667-4.266667 8.533333-8.533333 17.066667-8.533333h465.066667c4.266667 0 12.8 4.266667 17.066666 8.533333 0 4.266667 4.266667 8.533333 4.266667 17.066667v51.2c0 4.266667-4.266667 12.8-8.533333 17.066667-4.266667 4.266667-8.533333 8.533333-17.066667 8.533333L281.6 354.133333z m0 132.266667c-4.266667 0-12.8-4.266667-17.066667-8.533333-4.266667-4.266667-8.533333-8.533333-8.533333-17.066667V409.6c0-4.266667 4.266667-12.8 8.533333-17.066667 4.266667-4.266667 8.533333-8.533333 17.066667-8.533333h465.066667c4.266667 0 12.8 4.266667 17.066666 8.533333 0 4.266667 4.266667 12.8 4.266667 17.066667v51.2c0 4.266667-4.266667 12.8-8.533333 17.066667-4.266667 4.266667-8.533333 8.533333-17.066667 8.533333H281.6z m25.6-204.8c-8.533333 0-12.8 0-17.066667 4.266667-4.266667 4.266667-8.533333 12.8-8.533333 17.066666 0 4.266667 4.266667 12.8 8.533333 17.066667 4.266667 4.266667 8.533333 8.533333 17.066667 8.533333 4.266667 0 12.8-4.266667 17.066667-8.533333 4.266667-4.266667 8.533333-8.533333 8.533333-17.066667s-4.266667-12.8-8.533333-17.066666c-4.266667-4.266667-12.8-4.266667-17.066667-4.266667z m0 128c-8.533333 0-12.8 4.266667-17.066667 8.533333-4.266667 4.266667-8.533333 12.8-8.533333 17.066667 0 4.266667 4.266667 12.8 8.533333 17.066667 4.266667 4.266667 8.533333 8.533333 17.066667 8.533333 4.266667 0 12.8-4.266667 17.066667-8.533333 4.266667-4.266667 8.533333-12.8 8.533333-17.066667 0-4.266667-4.266667-12.8-8.533333-17.066667-4.266667-4.266667-12.8-8.533333-17.066667-8.533333z m-25.6 200.533333c-4.266667 0-12.8-4.266667-17.066667-8.533333-4.266667 0-8.533333-8.533333-8.533333-12.8v-51.2c0-4.266667 4.266667-12.8 8.533333-17.066667 4.266667-4.266667 8.533333-8.533333 17.066667-8.533333h465.066667c4.266667 0 12.8 4.266667 17.066666 8.533333 0 4.266667 4.266667 8.533333 4.266667 17.066667v51.2c0 4.266667-4.266667 12.8-8.533333 17.066667-4.266667 4.266667-8.533333 8.533333-17.066667 8.533333l-460.8-4.266667z m0 132.266667c-4.266667 0-12.8-4.266667-17.066667-8.533333-4.266667-4.266667-8.533333-8.533333-8.533333-17.066667v-51.2c0-4.266667 4.266667-12.8 8.533333-17.066667 4.266667-4.266667 8.533333-8.533333 17.066667-8.533333h465.066667c4.266667 0 12.8 4.266667 17.066666 8.533333 0 4.266667 4.266667 8.533333 4.266667 17.066667v51.2c0 4.266667-4.266667 12.8-8.533333 17.066667-4.266667 4.266667-8.533333 8.533333-17.066667 8.533333H281.6z m25.6-209.066667c-8.533333 0-12.8 4.266667-17.066667 8.533334-4.266667 4.266667-8.533333 12.8-8.533333 17.066666 0 4.266667 4.266667 12.8 8.533333 17.066667 4.266667 4.266667 8.533333 8.533333 17.066667 8.533333 4.266667 0 12.8-4.266667 17.066667-8.533333 4.266667-4.266667 8.533333-8.533333 8.533333-17.066667s-4.266667-12.8-8.533333-17.066666c-4.266667-4.266667-12.8-8.533333-17.066667-8.533334z m0 132.266667c-8.533333 0-12.8 4.266667-17.066667 8.533333-4.266667 4.266667-8.533333 8.533333-8.533333 17.066667 0 4.266667 4.266667 12.8 8.533333 17.066667 4.266667 4.266667 8.533333 8.533333 17.066667 8.533333 4.266667 0 12.8-4.266667 17.066667-8.533333 4.266667-4.266667 8.533333-12.8 8.533333-17.066667 0-4.266667-4.266667-12.8-8.533333-17.066667-4.266667-4.266667-12.8-8.533333-17.066667-8.533333z" fill="#FFFFFF" p-id="3250"></path></svg>