<?xml version="1.0" standalone="no"?><!DOCTYPE svg PUBLIC "-//W3C//DTD SVG 1.1//EN" "http://www.w3.org/Graphics/SVG/1.1/DTD/svg11.dtd"><svg t="1714285196272" class="icon" viewBox="0 0 1024 1024" version="1.1" xmlns="http://www.w3.org/2000/svg" p-id="4232" xmlns:xlink="http://www.w3.org/1999/xlink" width="16" height="16"><path d="M840.0896 436.9408a1191.2704 1191.2704 0 0 0-50.944-196.4544 288.3584 288.3584 0 0 1-33.3824 59.4944 313.3952 313.3952 0 0 0-493.7216 57.4464 207.616 207.616 0 0 1 128 53.8112 216.5248 216.5248 0 0 0-121.0368-35.84 221.7472 221.7472 0 1 0 0 443.4944h511.3344a195.6352 195.6352 0 0 0 59.648-382.1056z m-477.7472 313.7536a26.624 26.624 0 1 1 5.9904-19.6608 26.624 26.624 0 0 1-5.9904 19.6608z m425.472-93.9008c-77.3632 103.0656-242.5856 68.5056-348.5184 73.2672 0 0-18.7392 1.0752-37.6832 4.1984 0 0 7.168-3.0208 16.2816-6.1952a1211.136 1211.136 0 0 0 154.8288-54.1184 363.52 363.52 0 0 0 186.6752-236.7488 381.3888 381.3888 0 0 1-220.16 209.2544 1519.872 1519.872 0 0 1-172.1856 44.6976l-4.5056-2.4064c-75.4176-36.6592-77.5168-199.68 59.392-252.5696 60.0576-23.0912 117.4528-10.24 182.3232-25.856a285.0304 285.0304 0 0 0 181.9136-136.1408c36.4544 108.544 80.384 277.8112 1.6384 382.6176z" fill="#77BC1F" p-id="4233"></path></svg>