<?xml version="1.0" standalone="no"?><!DOCTYPE svg PUBLIC "-//W3C//DTD SVG 1.1//EN" "http://www.w3.org/Graphics/SVG/1.1/DTD/svg11.dtd"><svg t="1761324712189" class="icon" viewBox="0 0 1024 1024" version="1.1" xmlns="http://www.w3.org/2000/svg" p-id="6205" xmlns:xlink="http://www.w3.org/1999/xlink" width="200" height="200"><path d="M512 546.133333c188.5184 0 341.333333-84.053333 341.333333-187.733333s-152.814933-187.733333-341.333333-187.733333-341.333333 84.053333-341.333333 187.733333 152.814933 187.733333 341.333333 187.733333z m0-17.066666c-180.343467 0-324.266667-79.1552-324.266667-170.666667s143.9232-170.666667 324.266667-170.666667 324.266667 79.1552 324.266667 170.666667-143.9232 170.666667-324.266667 170.666667z" fill="#C6E5FF" p-id="6206"></path><path d="M512 716.8c188.5184 0 341.333333-84.053333 341.333333-187.733333s-152.814933-187.733333-341.333333-187.733334-341.333333 84.053333-341.333333 187.733334 152.814933 187.733333 341.333333 187.733333z m0-17.066667c-180.343467 0-324.266667-79.1552-324.266667-170.666666s143.9232-170.666667 324.266667-170.666667 324.266667 79.1552 324.266667 170.666667-143.9232 170.666667-324.266667 170.666666z" fill="#C6E5FF" p-id="6207"></path><path d="M512 921.6c188.5184 0 341.333333-84.053333 341.333333-187.733333s-152.814933-187.733333-341.333333-187.733334-341.333333 84.053333-341.333333 187.733334 152.814933 187.733333 341.333333 187.733333z m0-17.066667c-180.343467 0-324.266667-79.1552-324.266667-170.666666s143.9232-170.666667 324.266667-170.666667 324.266667 79.1552 324.266667 170.666667-143.9232 170.666667-324.266667 170.666666z" fill="#C6E5FF" p-id="6208"></path><path d="M503.466667 187.733333h17.066666v716.8h-17.066666z" fill="#C4ECF5" p-id="6209"></path><path d="M176.298667 699.733333c29.184 87.381333 168.379733 153.6 335.701333 153.6 167.3216 0 306.517333-66.218667 335.701333-153.6 3.703467 11.076267 5.632 22.4768 5.632 34.133334 0 103.68-152.814933 187.733333-341.333333 187.733333s-341.333333-84.053333-341.333333-187.733333c0-11.656533 1.928533-23.057067 5.632-34.133334z" fill="#1875F0" p-id="6210"></path><path d="M187.733333 546.133333m-34.133333 0a34.133333 34.133333 0 1 0 68.266667 0 34.133333 34.133333 0 1 0-68.266667 0Z" fill="#1875F0" p-id="6211"></path><path d="M836.266667 546.133333m-34.133334 0a34.133333 34.133333 0 1 0 68.266667 0 34.133333 34.133333 0 1 0-68.266667 0Z" fill="#1875F0" p-id="6212"></path><path d="M512 699.733333m-34.133333 0a34.133333 34.133333 0 1 0 68.266666 0 34.133333 34.133333 0 1 0-68.266666 0Z" fill="#1875F0" p-id="6213"></path><path d="M443.323733 248.6784h44.6976c2.696533 0 4.471467-1.774933 4.471467-4.4544 0-2.696533-1.774933-4.471467-4.471467-4.471467H443.323733c-2.679467 0-4.4544 1.774933-4.4544 4.471467 0 2.679467 1.774933 4.4544 4.4544 4.4544z m4.471467 58.112c-5.358933 0-8.925867-3.584-8.925867-8.942933 0-5.358933 3.584-8.925867 8.925867-8.925867 5.358933 0 8.942933 3.584 8.942933 8.925867 0 5.376-3.584 8.942933-8.942933 8.942933z m152.866133-40.226133h-33.058133c-5.376 0-14.318933 2.679467-18.773333 5.358933l-25.0368 16.9984a26.624 26.624 0 0 1-13.4144 4.4544h-44.714667a17.237333 17.237333 0 0 0-16.964267-13.397333 17.92 17.92 0 0 0-17.885866 17.8688A17.92 17.92 0 0 0 448.682667 315.733333c8.021333 0 15.189333-5.358933 16.981333-13.4144h44.6976c5.358933 0 14.301867-2.679467 18.773333-5.358933l25.0368-16.981333a26.624 26.624 0 0 1 13.4144-4.471467h33.058134c2.696533 0 4.471467-1.792 4.471466-4.471467 0-2.679467-1.774933-4.471467-4.471466-4.471466z m-90.282666 125.149866c-74.205867 0-134.0928-60.7744-134.0928-135.8848 0-67.925333 66.1504-133.188267 119.808-185.941333 5.341867-4.471467 9.813333-9.8304 14.2848-14.301867l15.189333 15.189334c52.736 52.753067 118.903467 118.016 118.903467 185.053866 0 75.093333-59.904 135.8848-134.0928 135.8848z m-4.471467-151.9616c-2.679467 0-4.471467 1.774933-4.471467 4.471467 0 2.679467 1.792 4.4544 4.471467 4.4544h8.942933c2.679467 0 4.471467-1.774933 4.471467-4.4544 0-2.696533-1.792-4.471467-4.471467-4.471467h-8.942933zM581.888 221.866667c5.376 0 8.942933 3.584 8.942933 8.942933 0 5.358933-3.584 8.942933-8.942933 8.942933-5.358933 0-8.942933-3.584-8.942933-8.942933 0-5.376 4.488533-8.942933 8.942933-8.942933zM461.2096 195.054933h36.6592c3.566933 0 8.925867 2.679467 11.605333 5.358934l25.0368 27.716266c4.471467 4.4544 11.6224 8.021333 17.885867 8.021334h12.509867c2.696533 7.168 8.942933 12.526933 16.981333 12.526933a17.92 17.92 0 0 0 17.885867-17.8688 17.92 17.92 0 0 0-17.885867-17.885867 18.261333 18.261333 0 0 0-17.8688 14.301867h-12.509867c-3.584 0-8.942933-2.679467-11.639466-5.358933L514.850133 194.1504c-4.471467-4.471467-11.605333-8.0384-17.885866-8.0384H460.322133c-2.679467 0-4.471467 1.792-4.471466 4.4544 0 2.696533 2.679467 4.488533 5.358933 4.488533z" fill="#1875F0" p-id="6214"></path></svg>