<?xml version="1.0" standalone="no"?><!DOCTYPE svg PUBLIC "-//W3C//DTD SVG 1.1//EN" "http://www.w3.org/Graphics/SVG/1.1/DTD/svg11.dtd"><svg t="1712368146162" class="icon" viewBox="0 0 1024 1024" version="1.1" xmlns="http://www.w3.org/2000/svg" p-id="5681" width="16" height="16" xmlns:xlink="http://www.w3.org/1999/xlink"><path d="M454.0928 787.2512a275.2512 275.2512 0 0 1 0-550.5024 15.36 15.36 0 0 1 0 30.72A244.5312 244.5312 0 1 0 698.624 512v-2.0992a15.36 15.36 0 0 1 15.36-15.36 15.36 15.36 0 0 1 15.36 15.36v2.5088a275.6096 275.6096 0 0 1-275.2512 274.8416zM829.7984 383.4368A15.36 15.36 0 0 1 819.2 378.88l-116.224-115.9168a15.36 15.36 0 0 1 21.7088-21.7088l115.968 115.968a15.36 15.36 0 0 1-10.8544 26.2144z" fill="#099DFD" p-id="5682"></path><path d="M598.1184 383.4368a15.36 15.36 0 0 1-10.8544-26.2144l115.968-115.968a15.36 15.36 0 0 1 21.76 21.76L608.9728 378.88a15.36 15.36 0 0 1-10.8544 4.5568zM454.0416 341.8112a15.36 15.36 0 0 1-15.36-15.36V252.1088a15.36 15.36 0 0 1 30.72 0v74.3424a15.36 15.36 0 0 1-15.36 15.36zM454.0416 787.2512a15.36 15.36 0 0 1-15.36-15.36v-74.3424a15.36 15.36 0 0 1 30.72 0v74.3424a15.36 15.36 0 0 1-15.36 15.36zM271.36 527.36H194.56a15.36 15.36 0 0 1 0-30.72h76.8a15.36 15.36 0 0 1 0 30.72zM430.4896 556.9536a15.36 15.36 0 0 1-10.6496-26.2144l94.208-94.2592a15.36 15.36 0 0 1 21.7088 21.7088L441.344 552.448a15.36 15.36 0 0 1-10.8544 4.5056z" fill="#099DFD" p-id="5683"></path><path d="M430.4896 556.9536a15.36 15.36 0 0 1-10.6496-4.5056l-47.1552-47.104A15.36 15.36 0 0 1 394.24 483.584l47.104 47.1552a15.36 15.36 0 0 1-10.8544 26.2144zM713.8816 525.056a15.36 15.36 0 0 1-15.36-15.36V252.1088a15.36 15.36 0 0 1 30.72 0v257.5872a15.36 15.36 0 0 1-15.36 15.36z" fill="#099DFD" p-id="5684"></path></svg>