<svg xmlns="http://www.w3.org/2000/svg" viewBox="0 0 347 147" width="347" height="147">
  <defs>
    <!-- 深紫色描边颜色 -->
    <linearGradient id="outlineGrad" x1="0%" y1="0%" x2="100%" y2="100%">
      <stop offset="0%" style="stop-color:#6B4C7A;stop-opacity:1" />
      <stop offset="100%" style="stop-color:#4A2C5A;stop-opacity:1" />
    </linearGradient>
    
    <!-- G字母 - 粉红色 -->
    <linearGradient id="gColor" x1="0%" y1="0%" x2="100%" y2="100%">
      <stop offset="0%" style="stop-color:#FF9BB3;stop-opacity:1" />
      <stop offset="100%" style="stop-color:#FF6B9D;stop-opacity:1" />
    </linearGradient>
    
    <!-- Y字母 - 浅蓝色 -->
    <linearGradient id="yColor" x1="0%" y1="0%" x2="100%" y2="100%">
      <stop offset="0%" style="stop-color:#7DD3FC;stop-opacity:1" />
      <stop offset="100%" style="stop-color:#3B82F6;stop-opacity:1" />
    </linearGradient>
    
    <!-- Z字母 - 紫色 -->
    <linearGradient id="zColor" x1="0%" y1="0%" x2="100%" y2="100%">
      <stop offset="0%" style="stop-color:#C4B5FD;stop-opacity:1" />
      <stop offset="100%" style="stop-color:#8B5CF6;stop-opacity:1" />
    </linearGradient>
    
    <!-- 侧面阴影颜色（深色版本，用于3D效果） -->
    <linearGradient id="gSide" x1="0%" y1="0%" x2="100%" y2="0%">
      <stop offset="0%" style="stop-color:#CC4D7D;stop-opacity:1" />
      <stop offset="100%" style="stop-color:#FF6B9D;stop-opacity:1" />
    </linearGradient>
    
    <linearGradient id="ySide" x1="0%" y1="0%" x2="100%" y2="0%">
      <stop offset="0%" style="stop-color:#1E40AF;stop-opacity:1" />
      <stop offset="100%" style="stop-color:#3B82F6;stop-opacity:1" />
    </linearGradient>
    
    <linearGradient id="zSide" x1="0%" y1="0%" x2="100%" y2="0%">
      <stop offset="0%" style="stop-color:#6D28D9;stop-opacity:1" />
      <stop offset="100%" style="stop-color:#8B5CF6;stop-opacity:1" />
    </linearGradient>
  </defs>
  
  <!-- G字母 - 左侧，清晰的G形状，粉红色，3D立体效果 -->
  <g transform="translate(7,7)">
    <!-- G的左竖边 -->
    <rect x="0" y="13" width="27" height="107" rx="5" ry="5" fill="url(#gColor)" stroke="url(#outlineGrad)" stroke-width="1.5"/>
    <polygon points="27,13 35,19 35,125 27,120" fill="url(#gSide)" stroke="url(#outlineGrad)" stroke-width="1.5"/>
    
    <!-- G的顶部横边 -->
    <rect x="0" y="13" width="107" height="27" rx="5" ry="5" fill="url(#gColor)" stroke="url(#outlineGrad)" stroke-width="1.5"/>
    <polygon points="0,40 107,40 115,45 8,45" fill="url(#gSide)" stroke="url(#outlineGrad)" stroke-width="1.5"/>
    
    <!-- G的底部横边 -->
    <rect x="0" y="93" width="93" height="27" rx="5" ry="5" fill="url(#gColor)" stroke="url(#outlineGrad)" stroke-width="1.5"/>
    <polygon points="0,120 93,120 101,125 8,125" fill="url(#gSide)" stroke="url(#outlineGrad)" stroke-width="1.5"/>
    
    <!-- G的右竖边（上半部分） -->
    <rect x="80" y="13" width="27" height="53" rx="5" ry="5" fill="url(#gColor)" stroke="url(#outlineGrad)" stroke-width="1.5"/>
    <polygon points="107,13 115,19 115,72 107,67" fill="url(#gSide)" stroke="url(#outlineGrad)" stroke-width="1.5"/>
    
    <!-- G的内部横条（从右竖边向左延伸） -->
    <rect x="60" y="53" width="47" height="27" rx="5" ry="5" fill="url(#gColor)" stroke="url(#outlineGrad)" stroke-width="1.5"/>
    <polygon points="60,80 107,80 115,85 68,85" fill="url(#gSide)" stroke="url(#outlineGrad)" stroke-width="1.5"/>
  </g>
  
  <!-- Y字母 - 中间，清晰的Y形状，浅蓝色，3D立体效果 -->
  <g transform="translate(114,7)">
    <!-- Y的左上方斜边 -->
    <polygon points="0,13 47,53 55,48 8,8" fill="url(#yColor)" stroke="url(#outlineGrad)" stroke-width="1.5"/>
    <polygon points="47,53 55,48 57,50 49,55" fill="url(#ySide)" stroke="url(#outlineGrad)" stroke-width="1.5"/>
    
    <!-- Y的右上方斜边 -->
    <polygon points="67,13 20,53 28,59 75,19" fill="url(#yColor)" stroke="url(#outlineGrad)" stroke-width="1.5"/>
    <polygon points="20,53 28,59 26,61 18,55" fill="url(#ySide)" stroke="url(#outlineGrad)" stroke-width="1.5"/>
    
    <!-- Y的底部竖边（从两条斜边交汇点向下） -->
    <rect x="30" y="53" width="20" height="67" rx="5" ry="5" fill="url(#yColor)" stroke="url(#outlineGrad)" stroke-width="1.5"/>
    <polygon points="50,53 58,59 58,125 50,120" fill="url(#ySide)" stroke="url(#outlineGrad)" stroke-width="1.5"/>
    
    <!-- 添加3D顶面效果，使Y更立体 -->
    <polygon points="0,13 8,8 75,19 67,13" fill="url(#yColor)" stroke="url(#outlineGrad)" stroke-width="1.5" opacity="0.8"/>
  </g>
  
  <!-- Z字母 - 右侧，清晰的Z形状，紫色，3D立体效果 -->
  <g transform="translate(181,7)">
    <!-- Z的顶部横边 -->
    <rect x="0" y="13" width="107" height="27" rx="5" ry="5" fill="url(#zColor)" stroke="url(#outlineGrad)" stroke-width="1.5"/>
    <polygon points="0,40 107,40 115,45 8,45" fill="url(#zSide)" stroke="url(#outlineGrad)" stroke-width="1.5"/>
    
    <!-- Z的对角斜边（从左下到右上） -->
    <polygon points="0,93 93,13 107,19 13,99" fill="url(#zColor)" stroke="url(#outlineGrad)" stroke-width="1.5"/>
    <polygon points="93,13 107,19 105,21 91,15" fill="url(#zSide)" stroke="url(#outlineGrad)" stroke-width="1.5"/>
    
    <!-- Z的底部横边 -->
    <rect x="0" y="93" width="107" height="27" rx="5" ry="5" fill="url(#zColor)" stroke="url(#outlineGrad)" stroke-width="1.5"/>
    <polygon points="0,120 107,120 115,125 8,125" fill="url(#zSide)" stroke="url(#outlineGrad)" stroke-width="1.5"/>
    
    <!-- Z的对角斜边的3D顶部面 -->
    <polygon points="13,99 93,19 107,24 27,104" fill="url(#zColor)" stroke="url(#outlineGrad)" stroke-width="1.5" opacity="0.7"/>
  </g>
</svg>